<?xml version="1.0" encoding="UTF-8" standalone="no"?>
<svg
   xmlns:dc="http://purl.org/dc/elements/1.1/"
   xmlns:cc="http://creativecommons.org/ns#"
   xmlns:rdf="http://www.w3.org/1999/02/22-rdf-syntax-ns#"
   xmlns:svg="http://www.w3.org/2000/svg"
   xmlns="http://www.w3.org/2000/svg"
   xmlns:sodipodi="http://sodipodi.sourceforge.net/DTD/sodipodi-0.dtd"
   xmlns:inkscape="http://www.inkscape.org/namespaces/inkscape"
   version="1.1"
   id="Capa_1"
   x="0px"
   y="0px"
   viewBox="0 0 479.586 479.586"
   style="enable-background:new 0 0 479.586 479.586;"
   xml:space="preserve"
   sodipodi:docname="back-up.svg"
   inkscape:version="1.0.2-2 (e86c870879, 2021-01-15)"><metadata
   id="metadata921"><rdf:RDF><cc:Work
       rdf:about=""><dc:format>image/svg+xml</dc:format><dc:type
         rdf:resource="http://purl.org/dc/dcmitype/StillImage" /><dc:title></dc:title></cc:Work></rdf:RDF></metadata><defs
   id="defs919" /><sodipodi:namedview
   pagecolor="#ffffff"
   bordercolor="#666666"
   borderopacity="1"
   objecttolerance="10"
   gridtolerance="10"
   guidetolerance="10"
   inkscape:pageopacity="0"
   inkscape:pageshadow="2"
   inkscape:window-width="1433"
   inkscape:window-height="907"
   id="namedview917"
   showgrid="false"
   inkscape:zoom="0.56469934"
   inkscape:cx="152.30455"
   inkscape:cy="369.10906"
   inkscape:window-x="0"
   inkscape:window-y="0"
   inkscape:window-maximized="0"
   inkscape:current-layer="g882" />
<g
   id="g884"
   style="fill:#666666">
	<g
   id="g882"
   style="fill:#666666">
		<path
   style="fill:#666666"
   d="M239.793,0C107.362,0,0,107.362,0,239.793s107.362,239.793,239.793,239.793    s239.793-107.362,239.793-239.793S372.224,0,239.793,0z M239.793,447.072c-114.296,0-207.279-92.983-207.279-207.279    S125.497,32.514,239.793,32.514s207.279,92.983,207.279,207.279S354.089,447.072,239.793,447.072z"
   id="path878" />
		
	</g>
</g>
<g
   id="g886">
</g>
<g
   id="g888">
</g>
<g
   id="g890">
</g>
<g
   id="g892">
</g>
<g
   id="g894">
</g>
<g
   id="g896">
</g>
<g
   id="g898">
</g>
<g
   id="g900">
</g>
<g
   id="g902">
</g>
<g
   id="g904">
</g>
<g
   id="g906">
</g>
<g
   id="g908">
</g>
<g
   id="g910">
</g>
<g
   id="g912">
</g>
<g
   id="g914">
</g>
<g
   id="g1523"
   transform="matrix(6.1787935,0,0,7.0017938,84.078889,63.317311)"
   style="fill:#666666"><path
     style="fill:#666666"
     d="M 42.359,25.479 27.122,1.25 c -1.048,-1.667 -2.747,-1.667 -3.795,0 L 8.095,25.479 C 7.047,27.146 7.779,28.28 9.73,28.011 l 5.43,-0.885 c 1.95,-0.269 3.531,1.11 3.531,3.079 v 16.683 c 0,1.969 1.596,3.566 3.565,3.566 h 5.935 c 1.97,0 3.566,-1.596 3.566,-3.566 V 30.206 c 0,-1.969 1.582,-3.348 3.531,-3.079 l 5.436,0.885 c 1.95,0.268 2.683,-0.866 1.635,-2.533 z"
     id="path1521" /></g></svg>
